<svg xmlns="http://www.w3.org/2000/svg" viewBox="0 0 512 512" role="img" aria-label="AI4comms favicon"><rect x="8" y="8" width="496" height="496" rx="112" style="fill:#F8FAFC;stroke:#ECECEC;stroke-width:16;"/><g transform="translate(1.2,130.2) scale(0.34)"><g transform="translate(-5649.296,-117.176)"><g transform="matrix(593.774,0,0,593.774,5875.02,695.11)"><path d="M-0.009,-0L0.303,-0.7L0.463,-0.7L0.776,-0L0.606,-0L0.35,-0.618L0.414,-0.618L0.157,-0L-0.009,-0ZM0.147,-0.15L0.19,-0.273L0.55,-0.273L0.594,-0.15L0.147,-0.15Z" style="fill:#15311A;fill-rule:nonzero;"/></g><g transform="matrix(593.774,0,0,593.774,6329.85,695.11)"><rect x="0.083" y="-0.7" width="0.162" height="0.7" style="fill:#15311A;"/></g><g transform="matrix(593.774,0,0,593.774,6524.61,695.11)"><path d="M0.031,-0.147L0.031,-0.256L0.361,-0.7L0.531,-0.7L0.208,-0.256L0.129,-0.279L0.68,-0.279L0.68,-0.147L0.031,-0.147ZM0.408,-0L0.408,-0.147L0.413,-0.279L0.413,-0.41L0.566,-0.41L0.566,-0L0.408,-0Z" style="fill:#214C28;fill-rule:nonzero;"/></g></g></g></svg>